<?xml version="1.0" standalone="no"?>
<!DOCTYPE svg PUBLIC "-//W3C//DTD SVG 20010904//EN"
 "http://www.w3.org/TR/2001/REC-SVG-20010904/DTD/svg10.dtd">
<svg version="1.0" xmlns="http://www.w3.org/2000/svg"
 width="1000.000000pt" height="1000.000000pt" viewBox="0 0 1000.000000 1000.000000"
 preserveAspectRatio="xMidYMid meet">
<metadata>
Created by potrace 1.14, written by Peter Selinger 2001-2017
</metadata>
<g transform="translate(0.000000,1000.000000) scale(0.100000,-0.100000)"
fill="#000000" stroke="none">
<path d="M4748 9994 c-3 -2 -36 -6 -74 -8 -38 -2 -69 -5 -69 -6 0 0 -25 -3
-55 -5 -30 -3 -71 -7 -90 -11 -19 -3 -47 -7 -62 -9 -15 -2 -55 -9 -90 -16 -35
-6 -76 -13 -93 -15 -16 -2 -48 -8 -70 -14 -22 -6 -51 -13 -65 -16 -14 -3 -74
-19 -135 -35 -60 -17 -118 -32 -127 -34 -9 -2 -26 -8 -37 -14 -11 -6 -29 -11
-40 -11 -12 0 -21 -4 -21 -8 0 -4 -8 -8 -17 -9 -10 -1 -31 -7 -48 -14 -16 -7
-34 -13 -40 -14 -5 -2 -35 -13 -65 -25 -86 -34 -95 -38 -100 -37 -3 1 -18 -6
-35 -15 -36 -19 -148 -72 -155 -73 -7 -1 -170 -86 -195 -102 -11 -7 -29 -16
-41 -22 -88 -40 -405 -256 -530 -360 -17 -14 -52 -44 -79 -66 -51 -42 -64 -54
-196 -181 -85 -81 -158 -159 -236 -250 -24 -27 -52 -59 -63 -71 -11 -12 -20
-25 -20 -28 0 -3 -9 -16 -21 -28 -11 -12 -41 -51 -67 -87 -25 -36 -51 -68 -56
-72 -7 -5 -7 -8 -1 -8 6 0 6 -3 -1 -8 -15 -10 -74 -99 -74 -111 0 -6 -4 -11
-9 -11 -5 0 -14 -13 -21 -30 -7 -16 -16 -30 -21 -30 -5 0 -9 -4 -9 -9 0 -5
-21 -44 -46 -87 -58 -99 -172 -335 -219 -454 -9 -25 -22 -56 -28 -70 -6 -14
-11 -27 -12 -30 0 -3 -13 -41 -27 -85 -44 -135 -69 -216 -78 -259 -5 -22 -18
-84 -30 -136 -25 -115 -31 -148 -35 -180 -1 -14 -5 -43 -9 -65 -31 -186 -30
-423 2 -505 3 -8 6 -22 7 -30 3 -28 73 -159 114 -214 44 -59 59 -74 306 -311
92 -88 205 -196 250 -240 46 -44 150 -143 230 -220 81 -77 177 -169 214 -205
38 -36 119 -114 182 -174 63 -60 202 -193 309 -296 107 -103 220 -211 250
-240 47 -45 202 -193 460 -440 37 -36 146 -139 240 -230 95 -91 199 -190 230
-220 91 -87 396 -379 463 -444 114 -108 209 -167 339 -212 96 -33 119 -36 273
-37 128 -1 249 19 283 45 6 6 12 8 12 4 0 -4 13 0 30 9 16 8 33 16 37 17 5 0
37 19 73 42 148 93 255 217 319 370 30 72 34 87 51 181 11 63 5 229 -10 275
-6 19 -13 46 -16 60 -8 43 -63 150 -108 215 -50 69 -57 77 -260 270 -81 77
-189 181 -240 230 -51 50 -164 158 -251 240 -86 83 -196 188 -245 235 -48 47
-156 150 -240 230 -84 80 -199 190 -256 245 -57 55 -167 161 -245 235 -78 74
-196 187 -263 252 -67 64 -144 138 -172 165 -28 26 -134 127 -234 223 -100 96
-215 206 -254 243 -160 154 -216 210 -216 220 0 28 69 238 109 330 11 26 21
49 21 52 0 5 15 32 86 162 56 101 152 240 206 297 16 17 28 33 28 38 0 15 230
235 323 308 155 122 428 281 529 309 4 1 31 12 60 25 52 23 229 80 278 90 93
18 179 36 205 40 151 28 582 28 716 1 13 -3 40 -8 59 -11 19 -3 62 -12 95 -20
33 -8 72 -17 88 -20 15 -3 58 -16 96 -29 38 -13 72 -21 75 -17 3 3 6 0 6 -6 0
-7 6 -12 14 -12 17 0 208 -78 221 -91 5 -5 17 -9 26 -9 10 0 19 -3 21 -7 2 -5
28 -21 58 -37 168 -89 440 -295 529 -400 9 -10 32 -35 51 -55 122 -129 253
-318 340 -491 45 -90 122 -280 113 -280 -3 0 -1 -6 4 -12 6 -7 16 -35 22 -63
7 -27 17 -61 22 -75 29 -82 55 -301 63 -527 3 -62 7 -116 10 -121 3 -5 8 -22
11 -38 24 -116 111 -270 201 -356 90 -84 105 -98 112 -98 4 0 27 -14 50 -30
86 -58 222 -101 357 -115 22 -2 42 -4 45 -6 3 -1 9 -1 14 0 6 1 44 4 85 6 42
3 103 12 136 21 33 9 65 17 70 18 24 4 150 68 200 102 66 43 168 143 203 199
14 22 28 42 31 45 21 18 84 179 98 255 15 76 7 437 -12 560 -2 17 -9 66 -15
110 -18 128 -67 352 -100 460 -17 55 -33 107 -35 115 -4 18 -53 157 -65 185
-4 11 -15 36 -24 57 -9 20 -16 39 -16 42 0 3 -22 54 -50 112 -27 58 -50 110
-50 114 0 4 -7 13 -15 20 -9 7 -13 15 -10 18 3 3 1 10 -4 16 -5 6 -26 42 -47
81 -44 81 -153 258 -163 265 -4 3 -10 12 -13 20 -6 15 -158 222 -185 250 -7 8
-21 25 -31 36 -90 111 -312 341 -411 424 -29 25 -67 58 -84 73 -58 51 -225
177 -236 177 -6 0 -11 4 -11 10 0 5 -15 17 -32 26 -18 9 -35 20 -38 23 -3 4
-36 26 -75 50 -38 24 -86 54 -105 67 -164 104 -564 290 -735 341 -27 8 -55 19
-61 24 -6 5 -13 6 -17 3 -3 -3 -16 0 -28 7 -13 7 -37 16 -54 20 -16 4 -66 17
-110 29 -44 12 -88 24 -97 26 -10 2 -28 6 -40 9 -35 8 -120 26 -143 30 -11 2
-47 9 -80 16 -33 6 -67 11 -75 11 -8 0 -22 2 -30 5 -8 3 -31 7 -50 9 -19 2
-60 6 -90 9 -30 4 -73 8 -95 11 -54 6 -602 13 -607 8z"/>
<path d="M4889 7256 c-2 -2 -20 -7 -39 -10 -63 -10 -81 -15 -136 -36 -145 -54
-267 -141 -371 -264 -39 -46 -119 -199 -129 -248 -1 -5 -2 -9 -4 -10 -2 -3 -7
-27 -16 -73 -12 -63 -11 -231 3 -285 7 -30 16 -66 19 -80 8 -38 59 -144 98
-203 40 -60 68 -89 280 -292 87 -82 199 -190 251 -240 51 -49 164 -157 250
-240 87 -82 190 -181 230 -220 40 -38 148 -142 240 -230 92 -88 210 -201 261
-251 52 -50 94 -90 94 -88 0 1 38 -35 84 -80 72 -70 292 -281 489 -470 34 -32
138 -131 230 -220 93 -88 199 -190 236 -226 247 -237 242 -230 237 -258 -2
-15 -5 -27 -6 -27 -1 0 -4 -13 -6 -29 -3 -16 -11 -41 -19 -56 -8 -15 -11 -30
-8 -33 3 -4 1 -13 -5 -20 -7 -8 -9 -17 -5 -20 3 -4 1 -7 -5 -7 -7 0 -12 -8
-12 -17 0 -10 -6 -29 -13 -43 -7 -14 -19 -44 -26 -68 -8 -23 -20 -47 -28 -53
-7 -6 -13 -17 -13 -24 0 -16 -80 -162 -131 -239 -21 -32 -39 -62 -39 -67 0 -5
-3 -9 -7 -9 -5 0 -21 -20 -38 -45 -16 -24 -33 -45 -37 -45 -5 0 -8 -4 -8 -9 0
-23 -232 -258 -331 -336 -35 -27 -75 -60 -89 -72 -14 -13 -30 -23 -37 -23 -6
0 -13 -3 -15 -7 -4 -11 -116 -83 -128 -83 -5 0 -10 -4 -10 -9 0 -5 -10 -13
-22 -16 -11 -4 -42 -19 -67 -34 -47 -27 -253 -121 -266 -121 -4 0 -21 -6 -38
-14 -42 -18 -193 -64 -236 -71 -19 -3 -38 -8 -43 -11 -4 -3 -22 -7 -40 -9 -18
-2 -44 -6 -58 -9 -14 -3 -43 -8 -65 -11 -22 -3 -56 -8 -75 -11 -47 -8 -483
-14 -494 -7 -5 4 -30 7 -55 9 -25 1 -59 5 -76 9 -16 3 -46 8 -65 10 -19 3 -87
19 -150 35 -63 17 -122 32 -130 34 -78 19 -356 141 -465 204 -293 168 -557
418 -750 707 -63 96 -191 335 -179 335 4 0 2 6 -4 13 -8 10 -56 133 -68 177
-28 98 -56 216 -64 264 -6 34 -12 73 -15 87 -6 30 -12 125 -19 284 -5 107 -9
146 -20 163 -3 5 -8 24 -11 43 -6 37 -77 186 -104 218 -9 11 -26 33 -38 48
-90 116 -277 240 -405 269 -5 1 -9 2 -10 4 -2 1 -16 4 -33 6 -16 3 -42 8 -56
13 -26 9 -258 7 -294 -2 -11 -3 -33 -8 -50 -12 -94 -22 -233 -89 -310 -149
-56 -44 -165 -157 -165 -172 0 -3 -13 -24 -28 -47 -44 -66 -85 -168 -100 -252
-9 -50 -8 -346 1 -440 14 -143 16 -156 33 -270 15 -93 18 -114 30 -165 8 -34
24 -111 29 -135 3 -11 18 -65 35 -120 17 -55 32 -107 34 -115 8 -33 90 -249
117 -308 16 -35 29 -65 29 -68 0 -6 104 -213 129 -256 11 -21 29 -53 39 -70
44 -77 87 -144 103 -163 10 -11 18 -23 18 -28 0 -8 7 -18 72 -107 22 -30 48
-66 57 -79 18 -25 101 -129 117 -147 6 -6 33 -37 60 -69 98 -113 301 -312 414
-405 23 -19 59 -50 79 -67 20 -18 45 -35 55 -39 9 -3 17 -9 17 -13 0 -4 39
-34 88 -67 48 -32 89 -61 92 -64 25 -28 317 -197 465 -269 248 -121 605 -252
775 -285 3 -1 11 -5 18 -9 6 -5 12 -6 12 -4 0 3 17 1 38 -4 20 -5 48 -12 62
-14 14 -3 36 -8 50 -11 50 -12 66 -15 95 -18 17 -2 41 -6 55 -9 14 -4 41 -9
60 -11 19 -3 51 -8 70 -11 19 -3 55 -7 80 -9 25 -3 45 -5 45 -6 0 0 41 -4 90
-8 190 -14 627 -6 785 13 77 10 116 15 135 19 37 7 110 20 130 22 60 9 92 15
107 20 9 2 26 7 37 9 12 3 31 7 44 10 12 3 33 7 47 10 14 3 66 16 115 31 50
14 97 27 105 29 32 7 300 105 385 141 50 20 161 73 248 118 207 106 211 108
217 115 3 3 21 15 40 25 41 23 263 168 270 177 3 3 46 37 95 74 50 37 97 73
105 81 8 8 35 31 59 51 143 122 303 283 431 433 30 36 58 66 63 68 4 2 7 8 7
14 0 6 11 21 25 34 14 13 25 26 25 29 0 3 25 38 55 79 54 73 175 257 188 286
4 8 21 38 37 65 17 28 38 66 47 85 9 19 20 37 24 40 3 3 12 22 18 42 7 21 17
38 22 38 5 0 9 5 9 12 0 6 8 30 19 52 28 63 47 106 71 166 12 30 26 66 32 80
10 26 78 227 82 245 2 6 8 30 15 55 7 25 15 52 16 60 2 8 11 47 20 85 9 39 19
79 21 90 2 11 6 31 9 45 9 41 12 63 19 110 3 25 8 56 11 70 13 68 19 159 20
290 0 126 -3 154 -24 215 -25 75 -81 193 -109 227 -58 73 -98 114 -288 296
-100 95 -450 430 -524 502 -26 25 -125 119 -220 210 -95 91 -198 190 -229 220
-32 30 -134 128 -227 217 -93 89 -203 194 -244 233 -130 124 -431 413 -491
470 -66 64 -400 384 -469 450 -26 25 -129 124 -230 220 -282 271 -290 279
-366 329 -39 26 -98 58 -130 70 -33 12 -67 27 -77 32 -33 18 -129 31 -248 35
-64 2 -118 2 -120 0z"/>
</g>
</svg>
