  <svg width="288" height="78.3" viewBox="0 0 288 78.3">
    <defs>
      <linearGradient id="full-gradient">
        <stop id="SvgjsStop1230" stopColor="#616161" offset="0" />
        <stop id="SvgjsStop1231" stopColor="#e6e7e8" offset="0.5" />
        <stop id="SvgjsStop1232" stopColor="#616161" offset="1" />
      </linearGradient>
    </defs>
    <g
      transform="matrix(0.6969509671343209,0,0,0.6969509671343209,86.88501377822377,20.637146712347356)"
      fill="url(#full-gradient)"
    >
      <path d="M22.496 30.0756 c0.00082032 0.039258 -0.000625 0.07832 -0.0022656 0.11648 c-0.0010938 0.02332 0.00027344 0.046368 -0.0013672 0.06996 c-0.0010938 0.015117 -0.0030078 0.029922 -0.0041016 0.04504 l-0.0024609 0.027188 c-0.41232 5.4252 -4.9776 9.6648 -10.427 9.6648 c-5.7668 0 -10.459 -4.692 -10.459 -10.459 c0 -1.2128 0.98328 -2.196 2.196 -2.196 s2.196 0.98328 2.196 2.196 c0 3.3452 2.7215 6.0668 6.0668 6.0668 c2.8585 0 5.2916 -2.0127 5.9092 -4.724 l-7.4624 -7.4624 c-0.85756 -0.85756 -0.85756 -2.248 0 -3.1056 c0.85784 -0.85756 2.248 -0.85756 3.1058 0 l8.2428 8.2428 c0.016758 0.016758 0.030742 0.034609 0.04668 0.05164 c0.026914 0.028828 0.053828 0.057384 0.0791 0.087576 c0.023594 0.028008 0.045272 0.056564 0.067228 0.085116 c0.021133 0.027734 0.041992 0.055468 0.061756 0.084024 c0.021953 0.031836 0.04254 0.06422 0.062576 0.096876 c0.017031 0.027734 0.033789 0.055744 0.049728 0.084296 c0.018672 0.034024 0.03625 0.068048 0.053008 0.10262 c0.014805 0.029922 0.029062 0.060116 0.042228 0.09086 c0.014531 0.03375 0.027969 0.0675 0.040588 0.10152 c0.012617 0.03375 0.024414 0.067228 0.035391 0.10152 c0.010156 0.032656 0.019492 0.06504 0.028281 0.097968 c0.0098828 0.036524 0.018945 0.07332 0.026914 0.11066 c0.0068752 0.032383 0.012383 0.064764 0.017891 0.097148 c0.006328 0.037617 0.012109 0.075508 0.016484 0.11367 c0.0038281 0.03457 0.0062892 0.06914 0.0084764 0.10371 c0.0024609 0.035976 0.0046484 0.071952 0.0051952 0.1082 z M1.6213 21.924 c-0.00082032 -0.038984 0.00085936 -0.07832 0.0025 -0.11676 c0.0010938 -0.02332 -0.00027344 -0.046368 0.0013672 -0.06996 c0.0010938 -0.015117 0.0030078 -0.029922 0.0041016 -0.04504 l0.0024609 -0.027188 c0.41232 -5.4252 4.9776 -9.6648 10.427 -9.6648 c5.7668 0 10.459 4.692 10.459 10.459 c0 1.2128 -0.98328 2.196 -2.196 2.196 s-2.196 -0.98328 -2.196 -2.196 c0 -3.3452 -2.7215 -6.0668 -6.0668 -6.0668 c-2.8585 0 -5.2916 2.0127 -5.9092 4.724 l7.4624 7.4624 c0.85756 0.85756 0.85756 2.248 0 3.1056 c-0.4288 0.4288 -0.99072 0.64316 -1.5529 0.64316 s-1.1241 -0.21438 -1.5529 -0.64316 l-8.2428 -8.2428 c-0.016758 -0.016758 -0.030742 -0.034609 -0.04668 -0.05164 c-0.026914 -0.028828 -0.053828 -0.057384 -0.0791 -0.087576 c-0.023594 -0.028008 -0.045272 -0.056564 -0.067228 -0.085116 c-0.021133 -0.027734 -0.041992 -0.055468 -0.061756 -0.084024 c-0.021953 -0.031836 -0.04254 -0.06422 -0.062576 -0.096876 c-0.017031 -0.027734 -0.033789 -0.055744 -0.049728 -0.084296 c-0.018672 -0.034024 -0.03625 -0.068048 -0.053008 -0.10262 c-0.014805 -0.030195 -0.028789 -0.060116 -0.042228 -0.09086 c-0.014531 -0.033476 -0.027969 -0.0675 -0.040588 -0.10152 c-0.012617 -0.033476 -0.024414 -0.066952 -0.035391 -0.10125 c-0.01043 -0.032383 -0.019766 -0.06504 -0.028555 -0.097968 c-0.0098828 -0.036797 -0.018945 -0.07332 -0.026914 -0.11066 c-0.0068752 -0.032383 -0.012383 -0.064764 -0.017891 -0.097148 c-0.006328 -0.037617 -0.012109 -0.075508 -0.016484 -0.11367 c-0.0038281 -0.03457 -0.0062892 -0.06914 -0.0084764 -0.10371 c-0.0024609 -0.035976 -0.0046484 -0.071952 -0.0051952 -0.1082 z M42.576 19.412 c1.2128 0 2.196 0.98328 2.196 2.196 l0 16.196 c0 1.2128 -0.98328 2.196 -2.196 2.196 c-1.1071 0 -2.0201 -0.81968 -2.1716 -1.885 c-1.677 1.1856 -3.721 1.885 -5.9264 1.885 c-5.6764 0 -10.294 -4.6176 -10.294 -10.294 s4.6176 -10.294 10.294 -10.294 c2.2054 0 4.2492 0.69944 5.9264 1.885 c0.15152 -1.0654 1.0645 -1.885 2.1716 -1.885 z M34.478 35.608 c3.2543 0 5.902 -2.6476 5.902 -5.902 s-2.6476 -5.902 -5.902 -5.902 s-5.902 2.6476 -5.902 5.902 s2.6476 5.902 5.902 5.902 z M64.84 19.412 c1.2128 0 2.196 0.98328 2.196 2.196 l0 8.098 c0 5.6764 -4.6176 10.294 -10.294 10.294 s-10.294 -4.6176 -10.294 -10.294 l0 -8.098 c0 -1.2128 0.98328 -2.196 2.196 -2.196 s2.196 0.98328 2.196 2.196 l0 8.098 c0 3.2543 2.6476 5.902 5.902 5.902 s5.902 -2.6476 5.902 -5.902 l0 -8.098 c0 -1.2128 0.98328 -2.196 2.196 -2.196 z M79.006 19.412 c1.2128 0 2.196 0.98328 2.196 2.196 s-0.98328 2.196 -2.196 2.196 c-3.2543 0 -5.902 2.6476 -5.902 5.902 l0 8.098 c0 1.2128 -0.98328 2.196 -2.196 2.196 s-2.196 -0.98328 -2.196 -2.196 l0 -16.196 c0 -1.2128 0.98328 -2.196 2.196 -2.196 c1.1071 0 2.0201 0.81996 2.1716 1.885 c1.677 -1.1856 3.721 -1.885 5.9264 -1.885 z M99.248 19.412 c1.2128 0 2.196 0.98328 2.196 2.196 l0 16.196 c0 1.2128 -0.98328 2.196 -2.196 2.196 c-1.1071 0 -2.0201 -0.81968 -2.1716 -1.885 c-1.677 1.1856 -3.721 1.885 -5.9264 1.885 c-5.6764 0 -10.294 -4.6176 -10.294 -10.294 s4.6176 -10.294 10.294 -10.294 c2.2054 0 4.2492 0.69944 5.9264 1.885 c0.15152 -1.0654 1.0645 -1.885 2.1716 -1.885 z M91.15 35.608 c3.2543 0 5.902 -2.6476 5.902 -5.902 s-2.6476 -5.902 -5.902 -5.902 s-5.902 2.6476 -5.902 5.902 s2.6476 5.902 5.902 5.902 z M122.495 19.644 c1.0846 0.54216 1.5243 1.8614 0.98192 2.946 l-8.098 16.196 c-0.37195 0.74392 -1.1324 1.2139 -1.9641 1.2139 s-1.5922 -0.46996 -1.9641 -1.2139 l-8.098 -16.196 c-0.5424 -1.0848 -0.10266 -2.4039 0.98192 -2.9463 c1.0848 -0.5424 2.4039 -0.10293 2.9463 0.9822 l6.134 12.268 l6.134 -12.267 c0.54216 -1.0851 1.8612 -1.5241 2.9463 -0.9822 z M156.32299999999998 36.251 c0.85784 0.85756 0.85784 2.2482 -0.00027344 3.1058 c-0.4288 0.4288 -0.99072 0.64316 -1.5529 0.64316 s-1.1241 -0.21438 -1.5529 -0.64316 l-6.71 -6.71 l-6.71 6.71 c-0.42028 0.42 -0.98192 0.64316 -1.5534 0.64316 c-0.28301 0 -0.56824 -0.054608 -0.84 -0.16715 c-0.82052 -0.33984 -1.3555 -1.1406 -1.3555 -2.0289 l0 -23.608 c0 -1.2128 0.98328 -2.196 2.196 -2.196 s2.196 0.98328 2.196 2.196 l0 10.309 l12.835 -11.918 c0.88888 -0.82516 2.2784 -0.77384 3.1036 0.11504 s0.77384 2.2784 -0.11504 3.1036 l-10.571 9.816 z M140.44039999999998 32.5024 l2.9611 -2.9611 l-0.9292 -0.9292 l-2.0319 1.8867 l0 2.0036 z M168.89899999999997 19.467 c5.6612 0 10.267 4.6056 10.267 10.267 l0 8.0706 c0 1.2128 -0.98328 2.196 -2.196 2.196 s-2.196 -0.98328 -2.196 -2.196 l0 -8.0706 c0 -3.2392 -2.6353 -5.8744 -5.8744 -5.8744 s-5.8744 2.6353 -5.8744 5.8744 l0 8.0706 c0 1.2128 -0.98328 2.196 -2.196 2.196 s-2.196 -0.98328 -2.196 -2.196 l0 -23.608 c0 -1.2128 0.98328 -2.196 2.196 -2.196 s2.196 0.98328 2.196 2.196 l0 7.1246 c1.6657 -1.1667 3.6908 -1.8541 5.8744 -1.8541 z M199.153 12 c1.2128 0 2.1961 0.98328 2.1961 2.196 l0 23.608 c0 1.2128 -0.98328 2.196 -2.196 2.196 c-1.103 0 -2.013 -0.81364 -2.1697 -1.873 c-1.6707 1.1782 -3.7056 1.873 -5.9008 1.873 c-5.6612 0 -10.267 -4.6056 -10.267 -10.267 s4.6056 -10.267 10.267 -10.267 c2.1837 0 4.2088 0.6874 5.8744 1.8541 l0 -7.1249 c0 -1.2128 0.98328 -2.196 2.196 -2.196 z M191.08299999999997 35.608 c3.2392 0 5.8744 -2.6353 5.8744 -5.8744 s-2.6353 -5.8744 -5.8744 -5.8744 s-5.8744 2.6353 -5.8744 5.8744 s2.6353 5.8744 5.8744 5.8744 z M213.29399999999998 19.412 c5.6764 0 10.294 4.6176 10.294 10.294 s-4.6176 10.294 -10.294 10.294 s-10.294 -4.6176 -10.294 -10.294 s4.6176 -10.294 10.294 -10.294 z M213.29399999999998 35.608 c3.2543 0 5.902 -2.6476 5.902 -5.902 s-2.6476 -5.902 -5.902 -5.902 s-5.902 2.6476 -5.902 5.902 s2.6476 5.902 5.902 5.902 z M235.558 19.412 c5.6764 0 10.294 4.6176 10.294 10.294 s-4.6176 10.294 -10.294 10.294 s-10.294 -4.6176 -10.294 -10.294 s4.6176 -10.294 10.294 -10.294 z M235.558 35.608 c3.2543 0 5.902 -2.6476 5.902 -5.902 s-2.6476 -5.902 -5.902 -5.902 s-5.902 2.6476 -5.902 5.902 s2.6476 5.902 5.902 5.902 z M257.987 35.608 c1.2128 0 2.1961 0.98332 2.1961 2.1961 s-0.98328 2.196 -2.196 2.196 c-5.7668 0 -10.459 -4.692 -10.459 -10.459 l0 -15.345 c0 -1.2128 0.98328 -2.196 2.196 -2.196 s2.196 0.98328 2.196 2.196 l0 15.345 c0 3.3452 2.7215 6.0668 6.0668 6.0668 z M264.068 19.412 c1.2128 0 2.196 0.98328 2.196 2.196 l0 16.196 c0 1.2128 -0.98328 2.196 -2.196 2.196 s-2.196 -0.98328 -2.196 -2.196 l0 -16.196 c0 -1.2128 0.98328 -2.196 2.196 -2.196 z M262.0394 15.036000000000001 c-0.054884 -0.13176 -0.096056 -0.2718 -0.12352 -0.4118 c-0.030195 -0.14 -0.043908 -0.28551 -0.043908 -0.42824 s0.013711 -0.28824 0.043908 -0.42824 c0.027461 -0.14 0.068632 -0.28 0.12352 -0.41176 s0.12352 -0.26078 0.20312 -0.37883 c0.079608 -0.12078 0.1702 -0.23332 0.27176 -0.33488 s0.2141 -0.19215 0.33488 -0.27176 c0.11805 -0.079608 0.24707 -0.14824 0.37883 -0.20312 s0.27176 -0.096056 0.41176 -0.12352 c0.71372 -0.14551 1.4714 0.090588 1.982 0.59844 c0.098828 0.10156 0.19215 0.2141 0.27176 0.33488 c0.079608 0.11805 0.14824 0.24707 0.20312 0.37883 s0.096056 0.27176 0.12352 0.41176 c0.030195 0.14 0.043908 0.28551 0.043908 0.42824 s-0.013711 0.28824 -0.043908 0.42824 c-0.027461 0.14 -0.068632 0.28 -0.12352 0.41176 s-0.12352 0.26078 -0.20312 0.37883 c-0.079608 0.12078 -0.17293 0.23332 -0.27176 0.33488 c-0.10156 0.10156 -0.2141 0.19215 -0.33488 0.27176 c-0.11805 0.079608 -0.24707 0.14824 -0.37883 0.20312 s-0.27176 0.096056 -0.41176 0.12352 c-0.14 0.030195 -0.28551 0.043908 -0.42824 0.043908 s-0.28824 -0.013711 -0.42824 -0.043908 c-0.14 -0.027461 -0.28 -0.068632 -0.41176 -0.12352 s-0.26078 -0.12352 -0.37883 -0.20312 c-0.12078 -0.079608 -0.23332 -0.1702 -0.33488 -0.27176 s-0.19215 -0.2141 -0.27176 -0.33488 c-0.079608 -0.11805 -0.14824 -0.24707 -0.20312 -0.37883 z M286.368 19.412 c1.2128 0 2.196 0.98328 2.196 2.196 l0 16.196 c0 1.2128 -0.98328 2.196 -2.196 2.196 c-1.1071 0 -2.0201 -0.81968 -2.1716 -1.885 c-1.677 1.1856 -3.721 1.885 -5.9264 1.885 c-5.6764 0 -10.294 -4.6176 -10.294 -10.294 s4.6176 -10.294 10.294 -10.294 c2.2054 0 4.2492 0.69944 5.9264 1.885 c0.15152 -1.0654 1.0645 -1.885 2.1716 -1.885 z M278.27 35.608 c3.2543 0 5.902 -2.6476 5.902 -5.902 s-2.6476 -5.902 -5.902 -5.902 s-5.902 2.6476 -5.902 5.902 s2.6476 5.902 5.902 5.902 z" />
    </g>
  </svg>
